<svg width="30" height="30" viewBox="0 0 30 30" fill="none" xmlns="http://www.w3.org/2000/svg">
<g clip-path="url(#clip0_273_25)">
<path d="M15.3957 3.83812C15.2718 3.78044 15.1368 3.75055 15.0001 3.75055C14.8634 3.75055 14.7284 3.78044 14.6045 3.83812L0.541956 10.4006C0.376361 10.4779 0.236966 10.6019 0.140915 10.7574C0.0448635 10.9129 -0.00365544 11.093 0.00132489 11.2757C0.00630521 11.4584 0.0645676 11.6356 0.168947 11.7856C0.273326 11.9356 0.41927 12.0518 0.588831 12.12L14.6513 17.745C14.8752 17.8347 15.125 17.8347 15.3488 17.745L26.2501 13.3875V24.375C25.7528 24.375 25.2759 24.5725 24.9243 24.9242C24.5726 25.2758 24.3751 25.7527 24.3751 26.25V30H30.0001V26.25C30.0001 25.7527 29.8025 25.2758 29.4509 24.9242C29.0993 24.5725 28.6224 24.375 28.1251 24.375V12.6356L29.4113 12.12C29.5809 12.0518 29.7268 11.9356 29.8312 11.7856C29.9356 11.6356 29.9939 11.4584 29.9988 11.2757C30.0038 11.093 29.9553 10.9129 29.8592 10.7574C29.7632 10.6019 29.6238 10.4779 29.4582 10.4006L15.3957 3.83812Z" fill="white"/>
<path d="M7.83044 16.935C7.70972 16.8895 7.58091 16.8695 7.45208 16.876C7.32324 16.8826 7.19715 16.9157 7.0817 16.9733C6.96625 17.0308 6.86392 17.1116 6.7811 17.2105C6.69829 17.3094 6.63679 17.4244 6.60043 17.5481L5.66293 20.7356C5.59727 20.9594 5.61736 21.1996 5.71929 21.4094C5.82122 21.6191 5.99767 21.7834 6.21418 21.87L14.6517 25.245C14.8755 25.3347 15.1253 25.3347 15.3492 25.245L23.7867 21.87C24.0032 21.7834 24.1796 21.6191 24.2816 21.4094C24.3835 21.1996 24.4036 20.9594 24.3379 20.7356L23.4004 17.5481C23.3641 17.4244 23.3026 17.3094 23.2198 17.2105C23.137 17.1116 23.0346 17.0308 22.9192 16.9733C22.8037 16.9157 22.6776 16.8826 22.5488 16.876C22.42 16.8695 22.2912 16.8895 22.1704 16.935L15.0004 19.6238L7.83044 16.935Z" fill="white"/>
</g>
<defs>
<clipPath id="clip0_273_25">
<rect width="30" height="30" fill="white"/>
</clipPath>
</defs>
</svg>
