<svg width="30" height="30" viewBox="0 0 30 30" fill="none" xmlns="http://www.w3.org/2000/svg">
<g clip-path="url(#clip0_270_63)">
<path d="M18.8756 1.63125C18.3709 1.11476 17.7681 0.704363 17.1025 0.424168C16.4369 0.143973 15.7221 -0.000366211 15 -0.000366211C14.2778 -0.000366211 13.563 0.143973 12.8974 0.424168C12.2319 0.704363 11.629 1.11476 11.1243 1.63125L9.95808 2.8275L8.28933 2.80687C7.56699 2.79833 6.85023 2.9343 6.1812 3.20679C5.51217 3.47928 4.90438 3.8828 4.39357 4.39361C3.88276 4.90442 3.47924 5.51221 3.20675 6.18124C2.93425 6.85027 2.79828 7.56703 2.80683 8.28938L2.82558 9.95813L1.63308 11.1244C1.11659 11.6291 0.706195 12.2319 0.425999 12.8975C0.145804 13.563 0.00146484 14.2779 0.00146484 15C0.00146484 15.7221 0.145804 16.437 0.425999 17.1025C0.706195 17.7681 1.11659 18.3709 1.63308 18.8756L2.82746 20.0419L2.80683 21.7106C2.79828 22.433 2.93425 23.1497 3.20675 23.8188C3.47924 24.4878 3.88276 25.0956 4.39357 25.6064C4.90438 26.1172 5.51217 26.5207 6.1812 26.7932C6.85023 27.0657 7.56699 27.2017 8.28933 27.1931L9.95808 27.1744L11.1243 28.3669C11.629 28.8834 12.2319 29.2938 12.8974 29.574C13.563 29.8542 14.2778 29.9985 15 29.9985C15.7221 29.9985 16.4369 29.8542 17.1025 29.574C17.7681 29.2938 18.3709 28.8834 18.8756 28.3669L20.0418 27.1725L21.7106 27.1931C22.4329 27.2017 23.1497 27.0657 23.8187 26.7932C24.4877 26.5207 25.0955 26.1172 25.6063 25.6064C26.1172 25.0956 26.5207 24.4878 26.7932 23.8188C27.0657 23.1497 27.2016 22.433 27.1931 21.7106L27.1743 20.0419L28.3668 18.8756C28.8833 18.3709 29.2937 17.7681 29.5739 17.1025C29.8541 16.437 29.9984 15.7221 29.9984 15C29.9984 14.2779 29.8541 13.563 29.5739 12.8975C29.2937 12.2319 28.8833 11.6291 28.3668 11.1244L27.1725 9.95813L27.1931 8.28938C27.2016 7.56703 27.0657 6.85027 26.7932 6.18124C26.5207 5.51221 26.1172 4.90442 25.6063 4.39361C25.0955 3.8828 24.4877 3.47928 23.8187 3.20679C23.1497 2.9343 22.4329 2.79833 21.7106 2.80687L20.0418 2.82562L18.8756 1.63313V1.63125ZM19.4137 12.8513L13.7887 18.4762C13.7016 18.5636 13.5982 18.6328 13.4843 18.6801C13.3704 18.7273 13.2483 18.7517 13.125 18.7517C13.0016 18.7517 12.8795 18.7273 12.7656 18.6801C12.6517 18.6328 12.5483 18.5636 12.4612 18.4762L9.64871 15.6638C9.56154 15.5766 9.4924 15.4731 9.44522 15.3592C9.39805 15.2453 9.37377 15.1233 9.37377 15C9.37377 14.8767 9.39805 14.7547 9.44522 14.6408C9.4924 14.5269 9.56154 14.4234 9.64871 14.3363C9.73587 14.2491 9.83935 14.1799 9.95324 14.1328C10.0671 14.0856 10.1892 14.0613 10.3125 14.0613C10.4357 14.0613 10.5578 14.0856 10.6717 14.1328C10.7856 14.1799 10.889 14.2491 10.9762 14.3363L13.125 16.4869L18.0862 11.5238C18.2622 11.3477 18.501 11.2488 18.75 11.2488C18.9989 11.2488 19.2377 11.3477 19.4137 11.5238C19.5897 11.6998 19.6886 11.9385 19.6886 12.1875C19.6886 12.4365 19.5897 12.6752 19.4137 12.8513Z" fill="#DE4141"/>
</g>
<defs>
<clipPath id="clip0_270_63">
<rect width="30" height="30" fill="white"/>
</clipPath>
</defs>
</svg>
