<svg width="30" height="30" viewBox="0 0 30 30" fill="none" xmlns="http://www.w3.org/2000/svg">
<g clip-path="url(#clip0_273_23)">
<path d="M13.125 4.6875C13.125 4.43886 13.2238 4.2004 13.3996 4.02459C13.5754 3.84877 13.8139 3.75 14.0625 3.75H27.1875C27.4361 3.75 27.6746 3.84877 27.8504 4.02459C28.0262 4.2004 28.125 4.43886 28.125 4.6875V6.5625C28.125 6.81114 28.0262 7.0496 27.8504 7.22541C27.6746 7.40123 27.4361 7.5 27.1875 7.5H14.0625C13.8139 7.5 13.5754 7.40123 13.3996 7.22541C13.2238 7.0496 13.125 6.81114 13.125 6.5625V4.6875ZM3.75 1.875C2.75544 1.875 1.80161 2.27009 1.09835 2.97335C0.395088 3.67661 0 4.63044 0 5.625L0 9.375C0 10.3696 0.395088 11.3234 1.09835 12.0267C1.80161 12.7299 2.75544 13.125 3.75 13.125H7.5C8.49456 13.125 9.44839 12.7299 10.1517 12.0267C10.8549 11.3234 11.25 10.3696 11.25 9.375V5.625C11.25 4.63044 10.8549 3.67661 10.1517 2.97335C9.44839 2.27009 8.49456 1.875 7.5 1.875H3.75ZM3.75 16.875C2.75544 16.875 1.80161 17.2701 1.09835 17.9734C0.395088 18.6766 0 19.6304 0 20.625L0 24.375C0 25.3696 0.395088 26.3234 1.09835 27.0266C1.80161 27.7299 2.75544 28.125 3.75 28.125H7.5C8.49456 28.125 9.44839 27.7299 10.1517 27.0266C10.8549 26.3234 11.25 25.3696 11.25 24.375V20.625C11.25 19.6304 10.8549 18.6766 10.1517 17.9734C9.44839 17.2701 8.49456 16.875 7.5 16.875H3.75ZM5.35125 10.0387C5.26416 10.1261 5.16071 10.1953 5.04681 10.2426C4.93292 10.2898 4.81081 10.3142 4.6875 10.3142C4.56419 10.3142 4.44208 10.2898 4.32819 10.2426C4.21429 10.1953 4.11084 10.1261 4.02375 10.0387L2.14875 8.16375C2.06159 8.07659 1.99244 7.97311 1.94527 7.85922C1.8981 7.74533 1.87382 7.62327 1.87382 7.5C1.87382 7.37673 1.8981 7.25467 1.94527 7.14078C1.99244 7.02689 2.06159 6.92341 2.14875 6.83625C2.23591 6.74908 2.33939 6.67994 2.45328 6.63277C2.56717 6.5856 2.68923 6.56132 2.8125 6.56132C2.93577 6.56132 3.05783 6.5856 3.17172 6.63277C3.28561 6.67994 3.38909 6.74908 3.47625 6.83625L4.6875 8.04938L7.77375 4.96125C7.86091 4.87408 7.96439 4.80494 8.07828 4.75777C8.19217 4.7106 8.31423 4.68632 8.4375 4.68632C8.56077 4.68632 8.68283 4.7106 8.79672 4.75777C8.91061 4.80494 9.01408 4.87408 9.10125 4.96125C9.18842 5.04841 9.25756 5.15189 9.30473 5.26578C9.3519 5.37967 9.37618 5.50173 9.37618 5.625C9.37618 5.74827 9.3519 5.87033 9.30473 5.98422C9.25756 6.09811 9.18842 6.20159 9.10125 6.28875L5.35125 10.0387ZM5.35125 25.0387C5.26416 25.1261 5.16071 25.1953 5.04681 25.2426C4.93292 25.2898 4.81081 25.3142 4.6875 25.3142C4.56419 25.3142 4.44208 25.2898 4.32819 25.2426C4.21429 25.1953 4.11084 25.1261 4.02375 25.0387L2.14875 23.1637C1.97271 22.9877 1.87382 22.749 1.87382 22.5C1.87382 22.251 1.97271 22.0123 2.14875 21.8363C2.32479 21.6602 2.56355 21.5613 2.8125 21.5613C3.06145 21.5613 3.30021 21.6602 3.47625 21.8363L4.6875 23.0494L7.77375 19.9613C7.94979 19.7852 8.18855 19.6863 8.4375 19.6863C8.68645 19.6863 8.92521 19.7852 9.10125 19.9613C9.27729 20.1373 9.37618 20.376 9.37618 20.625C9.37618 20.874 9.27729 21.1127 9.10125 21.2887L5.35125 25.0387ZM13.125 19.6875C13.125 19.4389 13.2238 19.2004 13.3996 19.0246C13.5754 18.8488 13.8139 18.75 14.0625 18.75H27.1875C27.4361 18.75 27.6746 18.8488 27.8504 19.0246C28.0262 19.2004 28.125 19.4389 28.125 19.6875V21.5625C28.125 21.8111 28.0262 22.0496 27.8504 22.2254C27.6746 22.4012 27.4361 22.5 27.1875 22.5H14.0625C13.8139 22.5 13.5754 22.4012 13.3996 22.2254C13.2238 22.0496 13.125 21.8111 13.125 21.5625V19.6875ZM13.125 10.3125C13.125 10.0639 13.2238 9.8254 13.3996 9.64959C13.5754 9.47377 13.8139 9.375 14.0625 9.375H23.4375C23.6861 9.375 23.9246 9.47377 24.1004 9.64959C24.2762 9.8254 24.375 10.0639 24.375 10.3125C24.375 10.5611 24.2762 10.7996 24.1004 10.9754C23.9246 11.1512 23.6861 11.25 23.4375 11.25H14.0625C13.8139 11.25 13.5754 11.1512 13.3996 10.9754C13.2238 10.7996 13.125 10.5611 13.125 10.3125ZM13.125 25.3125C13.125 25.0639 13.2238 24.8254 13.3996 24.6496C13.5754 24.4738 13.8139 24.375 14.0625 24.375H23.4375C23.6861 24.375 23.9246 24.4738 24.1004 24.6496C24.2762 24.8254 24.375 25.0639 24.375 25.3125C24.375 25.5611 24.2762 25.7996 24.1004 25.9754C23.9246 26.1512 23.6861 26.25 23.4375 26.25H14.0625C13.8139 26.25 13.5754 26.1512 13.3996 25.9754C13.2238 25.7996 13.125 25.5611 13.125 25.3125Z" fill="white"/>
</g>
<defs>
<clipPath id="clip0_273_23">
<rect width="30" height="30" fill="white"/>
</clipPath>
</defs>
</svg>
