<svg width="30" height="30" viewBox="0 0 30 30" fill="none" xmlns="http://www.w3.org/2000/svg">
<g clip-path="url(#clip0_273_28)">
<path d="M14.9995 2.34C18.4814 2.34 21.6108 3.54188 23.7183 5.70375C25.4524 5.92927 27.0883 6.63742 28.4395 7.7475C26.0752 2.77875 21.1777 0 14.9995 0C8.90578 0 3.97453 2.775 1.58203 7.72875C2.82091 6.71759 4.29876 6.04161 5.87391 5.76562C7.94203 3.51 11.2008 2.34 14.9995 2.34Z" fill="white"/>
<path d="M22.5004 22.5C20.5495 22.5023 18.6749 21.7419 17.2767 20.3812L17.2729 20.3775C17.1113 20.2561 16.938 20.1512 16.7554 20.0644C16.2059 19.8093 15.6062 19.6805 15.0004 19.6875C14.2242 19.6875 13.6336 19.8806 13.2473 20.0644C13.0641 20.1511 12.8901 20.256 12.7279 20.3775L12.7242 20.3812C11.8426 21.2371 10.7642 21.8633 9.58391 22.2047C8.40359 22.5461 7.15747 22.5923 5.95511 22.3392C4.75276 22.0861 3.631 21.5414 2.68847 20.7532C1.74594 19.9649 1.01152 18.9572 0.549762 17.8185C0.0880088 16.6799 -0.0869249 15.4453 0.0403422 14.2232C0.167609 13.0011 0.593179 11.829 1.27963 10.8099C1.96609 9.79083 2.8924 8.95602 3.97712 8.37888C5.06183 7.80173 6.27174 7.49993 7.50044 7.5H22.5004C24.4896 7.5 26.3972 8.29018 27.8037 9.6967C29.2103 11.1032 30.0004 13.0109 30.0004 15C30.0004 16.9891 29.2103 18.8968 27.8037 20.3033C26.3972 21.7098 24.4896 22.5 22.5004 22.5Z" fill="white"/>
</g>
<defs>
<clipPath id="clip0_273_28">
<rect width="30" height="30" fill="white"/>
</clipPath>
</defs>
</svg>
