<svg width="30" height="30" viewBox="0 0 30 30" fill="none" xmlns="http://www.w3.org/2000/svg">
<g clip-path="url(#clip0_273_20)">
<path d="M7.5 30C7.5 30 5.625 30 5.625 28.125C5.625 26.25 7.5 20.625 15 20.625C22.5 20.625 24.375 26.25 24.375 28.125C24.375 30 22.5 30 22.5 30H7.5ZM15 18.8438C16.2432 18.8438 17.4355 18.3499 18.3146 17.4708C19.1936 16.5917 19.6875 15.3995 19.6875 14.1562C19.6875 12.913 19.1936 11.7208 18.3146 10.8417C17.4355 9.96261 16.2432 9.46875 15 9.46875C13.7568 9.46875 12.5645 9.96261 11.6854 10.8417C10.8064 11.7208 10.3125 12.913 10.3125 14.1562C10.3125 15.3995 10.8064 16.5917 11.6854 17.4708C12.5645 18.3499 13.7568 18.8438 15 18.8438Z" fill="white"/>
<path d="M3.75 1.875C2.75544 1.875 1.80161 2.27009 1.09835 2.97335C0.395088 3.67661 0 4.63044 0 5.625L0 23.4375C0 24.1834 0.296316 24.8988 0.823762 25.4262C1.35121 25.9537 2.06658 26.25 2.8125 26.25H4.03688C4.42892 24.8721 5.11033 23.5937 6.03562 22.5H1.875V5.625C1.875 5.12772 2.07254 4.65081 2.42417 4.29917C2.77581 3.94754 3.25272 3.75 3.75 3.75H26.25C26.7473 3.75 27.2242 3.94754 27.5758 4.29917C27.9275 4.65081 28.125 5.12772 28.125 5.625V22.5H23.9644C25.0031 23.7262 25.6331 25.0744 25.9631 26.25H27.1875C27.9334 26.25 28.6488 25.9537 29.1762 25.4262C29.7037 24.8988 30 24.1834 30 23.4375V5.625C30 4.63044 29.6049 3.67661 28.9016 2.97335C28.1984 2.27009 27.2446 1.875 26.25 1.875H3.75Z" fill="white"/>
</g>
<defs>
<clipPath id="clip0_273_20">
<rect width="30" height="30" fill="white"/>
</clipPath>
</defs>
</svg>
